<svg width="60" height="38" viewBox="0 0 60 38" fill="none" xmlns="http://www.w3.org/2000/svg">
<path opacity="0.8" d="M26.3438 21.4688C26.3438 26.6354 25.2188 30.6042 22.9688 33.375C20.7188 36.125 17.4792 37.5 13.25 37.5C9.0625 37.5 5.83333 36.1458 3.5625 33.4375C1.29167 30.7083 0.135417 26.8021 0.09375 21.7188V16.0312C0.09375 10.8438 1.21875 6.89583 3.46875 4.1875C5.73958 1.45833 8.97917 0.09375 13.1875 0.09375C17.4167 0.09375 20.6458 1.4375 22.875 4.125C25.125 6.8125 26.2812 10.6458 26.3438 15.625V21.4688ZM20.5312 15.1562C20.5312 8.30208 18.0833 4.875 13.1875 4.875C8.3125 4.875 5.875 8.34375 5.875 15.2812V22.3125C5.875 25.7917 6.51042 28.4062 7.78125 30.1562C9.05208 31.9062 10.875 32.7812 13.25 32.7812C18.1042 32.7812 20.5312 29.25 20.5312 22.1875V15.1562ZM59.8125 37H32.7812V32.9062L46.125 20C48.2708 18.0417 49.8229 16.3438 50.7812 14.9062C51.7604 13.4479 52.25 12.0417 52.25 10.6875C52.25 8.97917 51.6458 7.58333 50.4375 6.5C49.2292 5.39583 47.6458 4.84375 45.6875 4.84375C43.1667 4.84375 41.2083 5.42708 39.8125 6.59375C38.4375 7.76042 37.75 9.45833 37.75 11.6875H31.9375C31.9375 8.25 33.2083 5.45833 35.75 3.3125C38.3125 1.16667 41.625 0.09375 45.6875 0.09375C49.4792 0.09375 52.4896 1.0625 54.7188 3C56.9479 4.9375 58.0625 7.45833 58.0625 10.5625C58.0625 12.25 57.5417 14 56.5 15.8125C55.4792 17.625 53.3542 20.2083 50.125 23.5625L39.875 32.2812H59.8125V37Z" fill="#333333"/>
</svg>
