<svg width="59" height="38" viewBox="0 0 59 38" fill="none" xmlns="http://www.w3.org/2000/svg">
<path opacity="0.8" d="M26.3438 21.4688C26.3438 26.6354 25.2188 30.6042 22.9688 33.375C20.7188 36.125 17.4792 37.5 13.25 37.5C9.0625 37.5 5.83333 36.1458 3.5625 33.4375C1.29167 30.7083 0.135417 26.8021 0.09375 21.7188V16.0312C0.09375 10.8438 1.21875 6.89583 3.46875 4.1875C5.73958 1.45833 8.97917 0.09375 13.1875 0.09375C17.4167 0.09375 20.6458 1.4375 22.875 4.125C25.125 6.8125 26.2812 10.6458 26.3438 15.625V21.4688ZM20.5312 15.1562C20.5312 8.30208 18.0833 4.875 13.1875 4.875C8.3125 4.875 5.875 8.34375 5.875 15.2812V22.3125C5.875 25.7917 6.51042 28.4062 7.78125 30.1562C9.05208 31.9062 10.875 32.7812 13.25 32.7812C18.1042 32.7812 20.5312 29.25 20.5312 22.1875V15.1562ZM40.5 16.1562H44.3125C46.7708 16.1562 48.6667 15.6458 50 14.625C51.3542 13.5833 52.0312 12.1875 52.0312 10.4375C52.0312 8.70833 51.4688 7.34375 50.3438 6.34375C49.2188 5.34375 47.4896 4.84375 45.1562 4.84375C43.1146 4.84375 41.4271 5.32292 40.0938 6.28125C38.7812 7.21875 38.125 8.48958 38.125 10.0938H32.3438C32.3438 7.17708 33.5417 4.78125 35.9375 2.90625C38.3333 1.03125 41.3958 0.09375 45.125 0.09375C49.0417 0.09375 52.1354 1.01042 54.4062 2.84375C56.6771 4.65625 57.8125 7.1875 57.8125 10.4375C57.8125 12.0833 57.2812 13.625 56.2188 15.0625C55.1771 16.4792 53.7083 17.5729 51.8125 18.3438C56.25 19.6771 58.4688 22.5208 58.4688 26.875C58.4688 30.0833 57.25 32.6562 54.8125 34.5938C52.3958 36.5312 49.1771 37.5 45.1562 37.5C41.2188 37.5 38.0312 36.5729 35.5938 34.7188C33.1562 32.8438 31.9375 30.3438 31.9375 27.2188H37.7188C37.7188 28.8646 38.3958 30.2083 39.75 31.25C41.125 32.2708 42.9375 32.7812 45.1875 32.7812C47.5208 32.7812 49.3438 32.2708 50.6562 31.25C51.9896 30.2292 52.6562 28.7708 52.6562 26.875C52.6562 22.8125 49.7812 20.7812 44.0312 20.7812H40.5V16.1562Z" fill="#333333"/>
</svg>
