<svg width="51" height="38" viewBox="0 0 51 38" fill="none" xmlns="http://www.w3.org/2000/svg">
<path opacity="0.8" d="M26.3438 21.4688C26.3438 26.6354 25.2188 30.6042 22.9688 33.375C20.7188 36.125 17.4792 37.5 13.25 37.5C9.0625 37.5 5.83333 36.1458 3.5625 33.4375C1.29167 30.7083 0.135417 26.8021 0.09375 21.7188V16.0312C0.09375 10.8438 1.21875 6.89583 3.46875 4.1875C5.73958 1.45833 8.97917 0.09375 13.1875 0.09375C17.4167 0.09375 20.6458 1.4375 22.875 4.125C25.125 6.8125 26.2812 10.6458 26.3438 15.625V21.4688ZM20.5312 15.1562C20.5312 8.30208 18.0833 4.875 13.1875 4.875C8.3125 4.875 5.875 8.34375 5.875 15.2812V22.3125C5.875 25.7917 6.51042 28.4062 7.78125 30.1562C9.05208 31.9062 10.875 32.7812 13.25 32.7812C18.1042 32.7812 20.5312 29.25 20.5312 22.1875V15.1562ZM50.4062 37H44.5938V7.53125L34.25 10.625V5.65625L49.5938 0.5H50.4062V37Z" fill="#333333"/>
</svg>
